<svg width="16" height="16" viewBox="0 0 16 16" fill="none" xmlns="http://www.w3.org/2000/svg">
    <path
        d="M15.3541 6.53113H14.75V6.5H8V9.5H12.2386C11.6203 11.2464 9.95862 12.5 8 12.5C5.51487 12.5 3.5 10.4851 3.5 8C3.5 5.51487 5.51487 3.5 8 3.5C9.14713 3.5 10.1908 3.93275 10.9854 4.63962L13.1068 2.51825C11.7673 1.26987 9.9755 0.5 8 0.5C3.85812 0.5 0.5 3.85812 0.5 8C0.5 12.1419 3.85812 15.5 8 15.5C12.1419 15.5 15.5 12.1419 15.5 8C15.5 7.49713 15.4482 7.00625 15.3541 6.53113Z"
        fill="#FFC107" />
    <path
        d="M1.36475 4.50912L3.82887 6.31625C4.49562 4.6655 6.11037 3.5 8 3.5C9.14712 3.5 10.1907 3.93275 10.9854 4.63962L13.1067 2.51825C11.7672 1.26987 9.9755 0.5 8 0.5C5.11925 0.5 2.621 2.12637 1.36475 4.50912Z"
        fill="#FF3D00" />
    <path
        d="M7.99999 15.5C9.93724 15.5 11.6975 14.7586 13.0284 13.553L10.7071 11.5888C9.92882 12.1807 8.97779 12.5008 7.99999 12.5C6.04924 12.5 4.39287 11.2561 3.76887 9.52026L1.32312 11.4046C2.56437 13.8335 5.08512 15.5 7.99999 15.5Z"
        fill="#4CAF50" />
    <path
        d="M15.3541 6.53113H14.75V6.5H8V9.5H12.2386C11.9428 10.3312 11.41 11.0574 10.706 11.5891L10.7071 11.5884L13.0284 13.5526C12.8641 13.7019 15.5 11.75 15.5 8C15.5 7.49713 15.4482 7.00625 15.3541 6.53113Z"
        fill="#3B8FF0" />
</svg>
